<?xml version="1.0" encoding="iso-8859-1"?>
<!-- Generator: Adobe Illustrator 19.0.0, SVG Export Plug-In . SVG Version: 6.00 Build 0)  -->
<svg version="1.1" id="Layer_1" xmlns="http://www.w3.org/2000/svg" xmlns:xlink="http://www.w3.org/1999/xlink" x="0px" y="0px"
	 viewBox="0 0 512 512" style="enable-background:new 0 0 512 512;" xml:space="preserve">
<g>
	<g>
		<g>
			<path d="M373.333,362.667H138.667c-5.896,0-10.667,4.771-10.667,10.667v85.333c0,5.896,4.771,10.667,10.667,10.667h234.667
				c5.896,0,10.667-4.771,10.667-10.667v-85.333C384,367.438,379.229,362.667,373.333,362.667z M362.667,448H149.333v-64h213.333
				V448z"/>
			<path d="M384,64h-42.667V10.68c0-5.904-4.063-10.68-9.958-10.68H181.333c-5.896,0-10.667,4.776-10.667,10.68V64H128
				c-23.521,0-42.667,18.62-42.667,42.18v363.102C85.333,492.841,104.479,512,128,512h256c23.521,0,42.667-19.159,42.667-42.719
				V106.18C426.667,82.62,407.521,64,384,64z M192,21.333h128V64H192V21.333z M405.333,469.333c0,11.76-9.563,21.333-21.333,21.333
				H128c-11.771,0-21.333-9.573-21.333-21.333V106.667c0-11.76,9.563-21.333,21.333-21.333h256c11.771,0,21.333,9.573,21.333,21.333
				V469.333z"/>
		</g>
	</g>
</g>
<g>
</g>
<g>
</g>
<g>
</g>
<g>
</g>
<g>
</g>
<g>
</g>
<g>
</g>
<g>
</g>
<g>
</g>
<g>
</g>
<g>
</g>
<g>
</g>
<g>
</g>
<g>
</g>
<g>
</g>
</svg>
